<mxfile host="app.diagrams.net" modified="2022-07-12T10:36:27.436Z" agent="5.0 (Windows NT 10.0; Win64; x64) AppleWebKit/537.36 (KHTML, like Gecko) Chrome/103.0.0.0 Safari/537.36" etag="XLi6wJ6O49GBqcTcKLPG" version="20.0.4" type="github">
  <diagram id="-UuVcLtEokh9mUfcoZl9" name="Page-1">
    <mxGraphModel dx="1504" dy="634" grid="1" gridSize="10" guides="1" tooltips="1" connect="1" arrows="1" fold="1" page="1" pageScale="1" pageWidth="827" pageHeight="1169" math="0" shadow="0">
      <root>
        <mxCell id="0" />
        <mxCell id="1" parent="0" />
        <mxCell id="jDlr1qxfKAmDvLEVzx3J-1" value="시작" style="ellipse;shape=cloud;whiteSpace=wrap;html=1;" vertex="1" parent="1">
          <mxGeometry x="50" y="20" width="120" height="80" as="geometry" />
        </mxCell>
        <mxCell id="jDlr1qxfKAmDvLEVzx3J-2" value="" style="endArrow=classic;html=1;rounded=0;" edge="1" parent="1">
          <mxGeometry width="50" height="50" relative="1" as="geometry">
            <mxPoint x="160" y="59.5" as="sourcePoint" />
            <mxPoint x="220" y="59.5" as="targetPoint" />
          </mxGeometry>
        </mxCell>
        <mxCell id="jDlr1qxfKAmDvLEVzx3J-3" value="숫자를 입력한다" style="rounded=1;whiteSpace=wrap;html=1;" vertex="1" parent="1">
          <mxGeometry x="220" y="35" width="100" height="50" as="geometry" />
        </mxCell>
        <mxCell id="jDlr1qxfKAmDvLEVzx3J-6" value="연산자를 &lt;br&gt;입력한다" style="rounded=1;whiteSpace=wrap;html=1;" vertex="1" parent="1">
          <mxGeometry x="220" y="130" width="100" height="50" as="geometry" />
        </mxCell>
        <mxCell id="jDlr1qxfKAmDvLEVzx3J-8" value="" style="endArrow=classic;html=1;rounded=0;entryX=0.5;entryY=0;entryDx=0;entryDy=0;exitX=0.5;exitY=1;exitDx=0;exitDy=0;" edge="1" parent="1" source="jDlr1qxfKAmDvLEVzx3J-3" target="jDlr1qxfKAmDvLEVzx3J-6">
          <mxGeometry width="50" height="50" relative="1" as="geometry">
            <mxPoint x="270" y="90" as="sourcePoint" />
            <mxPoint x="269.5" y="130" as="targetPoint" />
          </mxGeometry>
        </mxCell>
        <mxCell id="jDlr1qxfKAmDvLEVzx3J-9" value="숫자를&lt;br&gt;입력한다" style="rounded=1;whiteSpace=wrap;html=1;" vertex="1" parent="1">
          <mxGeometry x="220" y="220" width="100" height="50" as="geometry" />
        </mxCell>
        <mxCell id="jDlr1qxfKAmDvLEVzx3J-10" value="" style="endArrow=classic;html=1;rounded=0;entryX=0.5;entryY=0;entryDx=0;entryDy=0;exitX=0.5;exitY=1;exitDx=0;exitDy=0;" edge="1" parent="1">
          <mxGeometry width="50" height="50" relative="1" as="geometry">
            <mxPoint x="269.5" y="180" as="sourcePoint" />
            <mxPoint x="269.5" y="225" as="targetPoint" />
          </mxGeometry>
        </mxCell>
        <mxCell id="jDlr1qxfKAmDvLEVzx3J-12" value="" style="endArrow=classic;html=1;rounded=0;entryX=0.5;entryY=0;entryDx=0;entryDy=0;exitX=0.5;exitY=1;exitDx=0;exitDy=0;" edge="1" parent="1" target="jDlr1qxfKAmDvLEVzx3J-13">
          <mxGeometry width="50" height="50" relative="1" as="geometry">
            <mxPoint x="269.5" y="270" as="sourcePoint" />
            <mxPoint x="269.5" y="315" as="targetPoint" />
          </mxGeometry>
        </mxCell>
        <mxCell id="jDlr1qxfKAmDvLEVzx3J-13" value="=을&lt;br&gt;누른다" style="rounded=1;whiteSpace=wrap;html=1;" vertex="1" parent="1">
          <mxGeometry x="220" y="310" width="100" height="50" as="geometry" />
        </mxCell>
        <mxCell id="jDlr1qxfKAmDvLEVzx3J-17" value="" style="endArrow=classic;html=1;rounded=0;entryX=0.5;entryY=0;entryDx=0;entryDy=0;exitX=0.5;exitY=1;exitDx=0;exitDy=0;" edge="1" parent="1">
          <mxGeometry width="50" height="50" relative="1" as="geometry">
            <mxPoint x="269.5" y="360" as="sourcePoint" />
            <mxPoint x="270" y="400" as="targetPoint" />
          </mxGeometry>
        </mxCell>
        <mxCell id="jDlr1qxfKAmDvLEVzx3J-18" value="결과를&lt;br&gt;확인한다." style="rounded=1;whiteSpace=wrap;html=1;" vertex="1" parent="1">
          <mxGeometry x="220" y="400" width="100" height="50" as="geometry" />
        </mxCell>
        <mxCell id="jDlr1qxfKAmDvLEVzx3J-19" value="종료" style="ellipse;shape=cloud;whiteSpace=wrap;html=1;" vertex="1" parent="1">
          <mxGeometry x="210" y="480" width="120" height="80" as="geometry" />
        </mxCell>
        <mxCell id="jDlr1qxfKAmDvLEVzx3J-21" value="" style="endArrow=classic;html=1;rounded=0;entryX=0.5;entryY=0;entryDx=0;entryDy=0;exitX=0.5;exitY=1;exitDx=0;exitDy=0;" edge="1" parent="1">
          <mxGeometry width="50" height="50" relative="1" as="geometry">
            <mxPoint x="269.41" y="450" as="sourcePoint" />
            <mxPoint x="269.9099999999998" y="490" as="targetPoint" />
          </mxGeometry>
        </mxCell>
      </root>
    </mxGraphModel>
  </diagram>
</mxfile>
